<?xml version="1.0" encoding="UTF-8" standalone="no"?>
<svg
   xmlns:dc="http://purl.org/dc/elements/1.1/"
   xmlns:cc="http://creativecommons.org/ns#"
   xmlns:rdf="http://www.w3.org/1999/02/22-rdf-syntax-ns#"
   xmlns:svg="http://www.w3.org/2000/svg"
   xmlns="http://www.w3.org/2000/svg"
   xmlns:sodipodi="http://sodipodi.sourceforge.net/DTD/sodipodi-0.dtd"
   xmlns:inkscape="http://www.inkscape.org/namespaces/inkscape"
   version="1.1"
   viewBox="0 0 640 565.35"
   id="svg1630"
   sodipodi:docname="l-favicon.svg"
   width="640"
   height="565.34998"
   inkscape:version="0.92.4 (5da689c313, 2019-01-14)">
  <metadata
     id="metadata1634">
    <rdf:RDF>
      <cc:Work
         rdf:about="">
        <dc:format>image/svg+xml</dc:format>
        <dc:type
           rdf:resource="http://purl.org/dc/dcmitype/StillImage" />
        <dc:title></dc:title>
      </cc:Work>
    </rdf:RDF>
  </metadata>
  <sodipodi:namedview
     pagecolor="#ffffff"
     bordercolor="#666666"
     borderopacity="1"
     objecttolerance="10"
     gridtolerance="10"
     guidetolerance="10"
     inkscape:pageopacity="0"
     inkscape:pageshadow="2"
     inkscape:window-width="1920"
     inkscape:window-height="1018"
     id="namedview1632"
     showgrid="false"
     inkscape:zoom="0.61076923"
     inkscape:cx="342.75926"
     inkscape:cy="120.49244"
     inkscape:window-x="1352"
     inkscape:window-y="94"
     inkscape:window-maximized="1"
     inkscape:current-layer="g1626" />
  <defs
     id="defs1602">
    <style
       id="style1597">.cls-1{fill:none;}.cls-2{clip-path:url(#clip-path);}.cls-3{fill:#ffa6ab;}.cls-4{fill:#00384a;}</style>
    <clipPath
       id="clip-path"
       transform="translate(0)">
      <rect
         class="cls-1"
         width="1820.5"
         height="565.34003"
         id="rect1599"
         x="0"
         y="0"
         style="fill:none" />
    </clipPath>
  </defs>
  <g
     data-name="Layer 2"
     id="g1628">
    <g
       data-name="Layer 1"
       id="g1626">
      <g
         class="cls-2"
         transform="translate(-556,8)"
         clip-path="url(#clip-path)"
         id="g1608"
         style="fill:#ffa6ab">
        <path
           class="cls-3"
           d="m 1113.1,0 c 28.55,0 50.82,20 50.82,49.1 0,29.1 -22.27,49.11 -50.82,49.11 -28.55,0 -50.81,-20 -50.81,-49.11 0,-29.11 22.26,-49.1 50.81,-49.1"
           id="path1604"
           inkscape:connector-curvature="0"
           style="fill:#ffa6ab" />
        <path
           class="cls-3"
           d="m 823.89,0 c 28.55,0 50.82,20 50.82,49.1 0,29.1 -22.27,49.11 -50.82,49.11 -28.55,0 -50.81,-20 -50.81,-49.11 0,-29.11 22.27,-49.1 50.81,-49.1"
           id="path1606"
           inkscape:connector-curvature="0"
           style="fill:#ffa6ab" />
      </g>
      <rect
         class="cls-3"
         x="217.08"
         y="173.25999"
         width="101.63"
         height="266.91"
         id="rect1610"
         style="fill:#ffa6ab" />
      <g
         class="cls-2"
         transform="translate(-555.81,8)"
         clip-path="url(#clip-path)"
         id="g1614">
        <path
           class="cls-3"
           d="m 968.31,0 c 28.55,0 50.82,20 50.82,49.1 0,29.1 -22.27,49.11 -50.82,49.11 -28.55,0 -50.82,-20 -50.82,-49.11 0,-29.11 22.27,-49.1 50.82,-49.1"
           id="path1612"
           inkscape:connector-curvature="0"
           style="fill:#ffa6ab" />
      </g>
      <rect
         class="cls-3"
         x="361.85001"
         y="173.25999"
         width="101.64"
         height="266.91"
         id="rect1616"
         style="fill:#ffa6ab" />
      <rect
         class="cls-3"
         x="506.97998"
         y="173.25999"
         width="101.64"
         height="266.91"
         id="rect1618"
         style="fill:#ffa6ab" />
      <path
         d="m 3.0455,39.04 v 524.31 h 639.57 v -96.8 h -533.1 V 39.04 Z"
         id="path1620"
         inkscape:connector-curvature="0"
         style="fill:#00384a" />
    </g>
  </g>
</svg>
